#N canvas 475 232 976 524 12;
#X obj 185 356 dac~;
#X msg 390 184 set \$1;
#X obj 547 107 receive id0;
#X obj 453 108 receive id1;
#X floatatom 377 154 5 0 0 0 - - -;
#X obj 344 104 receive id2;
#X obj 9 205 receive length2;
#X obj 122 209 receive length1;
#X obj 239 199 receive length0;
#X msg 177 246 next \$1;
#X obj 184 318 clone LbPd_Test_Subpatch_e01 2;
#X obj 47 284 receive length;
#X msg 56 318 next \$1;
#X connect 1 0 10 0;
#X connect 2 0 4 0;
#X connect 3 0 4 0;
#X connect 4 0 1 0;
#X connect 5 0 4 0;
#X connect 6 0 9 0;
#X connect 7 0 9 0;
#X connect 8 0 9 0;
#X connect 10 0 0 0;
#X connect 10 0 0 1;
#X connect 11 0 12 0;
#X connect 12 0 10 0;
