#N canvas 324 342 1133 538 12;
#X obj 203 170 osc~ 440;
#X obj 200 235 *~ 1;
#X floatatom 296 164 10 0 100 0 - - -;
#X obj 257 201 / 100;
#X msg 285 126 0;
#X msg 320 126 5;
#X obj 320 99 loadbang;
#X obj 76 165 receive position;
#X obj 248 118 + 0;
#X obj 191 275 outlet~;
#X obj 247 74 inlet;
#X connect 0 0 1 0;
#X connect 1 0 9 0;
#X connect 2 0 3 0;
#X connect 3 0 1 1;
#X connect 4 0 2 0;
#X connect 5 0 2 0;
#X connect 6 0 5 0;
#X connect 8 0 0 0;
#X connect 10 0 8 0;
