#N canvas 798 171 545 550 12;
#X obj 120 431 tabread4~ grainArray;
#X obj 121 377 line~;
#X floatatom 119 129 10 0 829845 0 - - -;
#X obj 119 197 t f f;
#X obj 120 285 pack f f f;
#X floatatom 209 125 5 0 5000 0 - - -;
#X obj 216 208 * 48;
#X text 179 369 start (samples) end (samples) duration (ms);
#X msg 119 332 \$1 \, \$2 \$3;
#X obj 66 67 bng 15 250 50 0 empty empty empty 17 7 0 10 -262144 -1
-1;
#X obj 118 165 * 48;
#X obj 261 124 loadbang;
#X obj 262 149 samplerate~;
#X obj 261 175 / 1000;
#X obj 115 76 inlet;
#X obj 121 477 outlet~;
#X text 153 25 Grain Subpatch;
#X obj 151 243 +;
#X obj 211 86 inlet;
#X obj 13 87 loadbang;
#X connect 0 0 15 0;
#X connect 1 0 0 0;
#X connect 2 0 10 0;
#X connect 3 0 4 0;
#X connect 3 1 17 0;
#X connect 4 0 8 0;
#X connect 5 0 6 0;
#X connect 5 0 4 2;
#X connect 6 0 17 1;
#X connect 8 0 1 0;
#X connect 9 0 2 0;
#X connect 10 0 3 0;
#X connect 11 0 12 0;
#X connect 12 0 13 0;
#X connect 13 0 6 1;
#X connect 14 0 2 0;
#X connect 17 0 4 1;
#X connect 18 0 5 0;
#X connect 19 0 2 0;
