#N canvas 401 256 450 300 12;
#X obj 128 123 osc~ 440;
#X obj 130 193 *~ 1;
#X obj 121 233 dac~;
#X floatatom 226 122 10 0 100 0 - - -;
#X obj 187 159 / 100;
#X msg 215 84 0;
#X msg 250 84 5;
#X obj 250 57 loadbang;
#X obj 16 123 receive length;
#X connect 0 0 1 0;
#X connect 1 0 2 0;
#X connect 1 0 2 1;
#X connect 3 0 4 0;
#X connect 4 0 1 1;
#X connect 5 0 3 0;
#X connect 6 0 3 0;
#X connect 7 0 6 0;
#X connect 8 0 1 1;
