#N canvas 351 124 1401 667 12;
#X obj 70 211 unpack float float float;
#X obj 159 468 outlet;
#X obj 242 468 outlet;
#X obj 117 76 unpackOSC;
#X obj 75 468 outlet;
#X obj 45 36 inlet;
#X obj 914 208 float \$1;
#X floatatom 914 242 5 0 0 0 - - -;
#X obj 913 181 bng 15 250 50 0 empty empty empty 17 7 0 10 -262144
-1 -1;
#X obj 81 151 routeOSC /0;
#X obj 471 109 routeOSC /enable /disable;
#X floatatom 479 140 5 0 0 0 - - -;
#X floatatom 530 143 5 0 0 0 - - -;
#X floatatom 486 190 5 0 0 0 - - -;
#X obj 487 233 outlet;
#X obj 912 120 loadbang;
#X obj 121 112 routeOSC /GrainData;
#X obj 132 27 udpreceive 8000;
#X obj 500 295 routeOSC /1;
#X obj 469 357 unpack float float float;
#X floatatom 472 393 5 0 0 0 - - -;
#X floatatom 538 397 5 0 0 0 - - -;
#X floatatom 615 397 5 0 0 0 - - -;
#X connect 0 0 2 0;
#X connect 0 1 1 0;
#X connect 0 2 4 0;
#X connect 3 0 10 0;
#X connect 3 0 16 0;
#X connect 6 0 7 0;
#X connect 8 0 6 0;
#X connect 9 0 0 0;
#X connect 10 0 11 0;
#X connect 10 1 12 0;
#X connect 11 0 13 0;
#X connect 12 0 13 0;
#X connect 13 0 14 0;
#X connect 15 0 8 0;
#X connect 16 0 9 0;
#X connect 16 0 18 0;
#X connect 17 0 3 0;
#X connect 18 0 19 0;
#X connect 19 0 20 0;
#X connect 19 1 21 0;
#X connect 19 2 22 0;
#X connect 20 0 2 0;
#X connect 21 0 1 0;
#X connect 22 0 4 0;
