#N canvas -568 -1003 958 988 12;
#X obj 120 431 tabread4~ grainArray;
#X obj 121 377 line~;
#X floatatom 112 157 10 0 829845 0 - - -;
#X obj 119 197 t f f;
#X obj 120 285 pack f f f;
#X floatatom 209 125 5 0 5000 0 - - -;
#X obj 216 208 * 48;
#X text 179 369 start (samples) end (samples) duration (ms);
#X msg 119 332 \$1 \, \$2 \$3;
#X obj 261 124 loadbang;
#X obj 262 149 samplerate~;
#X obj 261 175 / 1000;
#X obj 207 80 r grain_len;
#X obj 115 76 inlet;
#X obj 121 477 outlet~;
#X text 14 3 Grain Subpatch;
#X obj 151 243 +;
#X obj 337 77 inlet;
#X obj 667 29 inlet;
#X msg 119 102 set \$1;
#X obj 532 246 bng 15 250 50 0 empty empty empty 17 7 0 10 -262144
-1 -1;
#X obj 531 191 metro 1000;
#X obj 590 36 inlet;
#X obj 793 52 inlet;
#X floatatom 636 162 5 0 0 0 - - -;
#X obj 634 129 *;
#X obj 671 95 t b f;
#X obj 601 100 tgl 15 0 empty empty empty 17 7 0 10 -262144 -1 -1 0
1;
#X floatatom 793 84 5 0 0 0 - - -;
#X obj 675 62 tgl 15 0 empty empty empty 17 7 0 10 -262144 -1 -1 0
1;
#X text 805 31 Voice;
#X text 664 7 Global On/Off;
#X text 542 6 Grain Active;
#X text 332 47 Length;
#X text 105 48 Position;
#X connect 0 0 14 0;
#X connect 1 0 0 0;
#X connect 2 0 3 0;
#X connect 3 0 4 0;
#X connect 3 1 16 0;
#X connect 4 0 8 0;
#X connect 5 0 6 0;
#X connect 5 0 4 2;
#X connect 6 0 16 1;
#X connect 8 0 1 0;
#X connect 9 0 10 0;
#X connect 10 0 11 0;
#X connect 11 0 6 1;
#X connect 12 0 5 0;
#X connect 13 0 19 0;
#X connect 16 0 4 1;
#X connect 17 0 5 0;
#X connect 17 0 21 1;
#X connect 18 0 29 0;
#X connect 18 0 27 0;
#X connect 19 0 2 0;
#X connect 20 0 2 0;
#X connect 21 0 20 0;
#X connect 22 0 27 0;
#X connect 23 0 28 0;
#X connect 24 0 21 0;
#X connect 25 0 24 0;
#X connect 26 0 25 0;
#X connect 26 1 25 1;
#X connect 27 0 25 0;
#X connect 29 0 26 0;
