#N canvas -693 -984 1271 812 12;
#X obj 973 429 soundfiler;
#X obj 1068 429 array define grainArray;
#X msg 973 390 read -resize test.wav grainArray;
#X floatatom 973 457 10 0 0 0 - - -;
#X obj 970 359 tgl 15 1 empty empty empty 17 7 0 10 -262144 -1 -1 1
1;
#X obj 160 678 dac~;
#X floatatom 232 327 5 0 0 0 - - -;
#X obj 161 629 *~ 0.5;
#X obj 161 436 bng 15 250 50 0 empty empty empty 17 7 0 10 -262144
-1 -1;
#X obj 167 401 metro 1000;
#X obj 168 375 tgl 15 0 empty empty empty 17 7 0 10 -262144 -1 -1 0
1;
#X obj 262 70 receive length;
#X obj 406 46 receive id0;
#X obj 300 46 receive id1;
#X msg 407 406 set \$1;
#X msg 152 532 this \$1;
#X obj 161 598 clone Pd_GrainSubpatch 1;
#X obj 82 52 receive start;
#X obj 81 329 *;
#X obj 996 484 s lenInSamples;
#X obj 898 426 loadbang;
#X obj 100 75 r lenInSamples;
#X msg 86 367 set \$1;
#X obj 1078 70 routeOSC /1;
#X obj 1047 132 unpack float float float;
#X floatatom 1050 168 5 0 0 0 - - -;
#X floatatom 1116 172 5 0 0 0 - - -;
#X floatatom 1193 172 5 0 0 0 - - -;
#X floatatom 579 171 5 0 0 0 - - -;
#X msg 636 38 set 1;
#X floatatom 513 169 5 0 0 0 - - -;
#X msg 554 38 vis 1 1;
#X obj 563 78 clone OSCRouting_Subpatch 1;
#X obj 613 121 unpack f f;
#X obj 513 120 unpack f f;
#X floatatom 681 172 5 0 0 0 - - -;
#X obj 702 121 unpack f f;
#X floatatom 769 170 5 0 0 0 - - -;
#X obj 277 96 s grain_len;
#X obj 679 228 change;
#X obj 767 229 change;
#X obj 513 225 change;
#X floatatom 151 491 10 0 0 0 - - -;
#X msg 262 244 this \$1;
#X obj 850 230 unpack f f;
#X text 512 191 instance id pos len;
#X connect 0 0 3 0;
#X connect 2 0 0 0;
#X connect 3 0 19 0;
#X connect 4 0 2 0;
#X connect 6 0 9 1;
#X connect 6 0 43 0;
#X connect 7 0 5 0;
#X connect 7 0 5 1;
#X connect 8 0 42 0;
#X connect 9 0 8 0;
#X connect 10 0 9 0;
#X connect 12 0 14 0;
#X connect 14 0 16 0;
#X connect 15 0 16 0;
#X connect 16 0 7 0;
#X connect 18 0 22 0;
#X connect 20 0 3 0;
#X connect 21 0 18 1;
#X connect 22 0 42 0;
#X connect 23 0 24 0;
#X connect 24 0 25 0;
#X connect 24 1 26 0;
#X connect 24 2 27 0;
#X connect 30 0 41 0;
#X connect 32 0 34 0;
#X connect 32 1 33 0;
#X connect 32 2 36 0;
#X connect 32 3 44 0;
#X connect 33 1 35 0;
#X connect 34 0 30 0;
#X connect 34 1 28 0;
#X connect 35 0 39 0;
#X connect 36 1 37 0;
#X connect 37 0 40 0;
#X connect 39 0 18 0;
#X connect 40 0 6 0;
#X connect 41 0 14 0;
#X connect 42 0 15 0;
#X connect 43 0 16 1;
#X connect 44 1 10 0;
