#N canvas -8 -8 1920 997 12;
#X obj 973 429 soundfiler;
#X obj 1068 429 array define grainArray;
#X msg 973 390 read -resize test.wav grainArray;
#X floatatom 973 457 10 0 0 0 - - -;
#X obj 970 359 tgl 15 1 empty empty empty 17 7 0 10 -262144 -1 -1 1
1;
#X obj 160 678 dac~;
#X floatatom 229 494 5 0 0 0 - - -;
#X obj 161 629 *~ 0.5;
#X obj 402 493 tgl 15 0 empty empty empty 17 7 0 10 -262144 -1 -1 0
1;
#X obj 262 70 receive length;
#X obj 406 46 receive id0;
#X obj 300 46 receive id1;
#X msg 331 529 set \$1;
#X msg 152 532 this \$1;
#X obj 138 227 receive start;
#X obj 153 442 *;
#X obj 996 484 s lenInSamples;
#X obj 898 426 loadbang;
#X obj 156 250 r lenInSamples;
#X floatatom 333 491 5 0 0 0 - - -;
#X floatatom 176 367 5 0 0 0 - - -;
#X obj 277 96 s grain_len;
#X floatatom 150 493 10 0 0 0 - - -;
#X msg 219 529 this \$1;
#X obj 786 578 tabread grainArray;
#N canvas 558 100 1123 716 UnityInput 1;
#X obj 304 552 outlet;
#X obj 198 559 outlet;
#X obj 300 183 unpackOSC;
#X obj 453 536 outlet;
#X obj 728 239 routeOSC /enable /disable;
#X floatatom 736 270 5 0 0 0 - - -;
#X floatatom 787 273 5 0 0 0 - - -;
#X floatatom 743 320 5 0 0 0 - - -;
#X obj 744 363 outlet;
#X obj 303 227 routeOSC /GrainData;
#X obj 315 134 udpreceive 8000;
#X floatatom 230 425 5 0 0 0 - - -;
#X floatatom 324 416 5 0 0 0 - - -;
#X floatatom 465 413 5 0 0 0 - - -;
#X obj 312 484 change;
#X obj 457 480 change;
#X obj 206 484 change;
#X obj 294 268 zl rev;
#X obj 253 318 unpack float float float float;
#X obj 384 532 outlet;
#X floatatom 396 409 5 0 0 0 - - -;
#X obj 388 476 change;
#X connect 2 0 4 0;
#X connect 2 0 9 0;
#X connect 4 0 5 0;
#X connect 4 1 6 0;
#X connect 5 0 7 0;
#X connect 6 0 7 0;
#X connect 7 0 8 0;
#X connect 9 0 17 0;
#X connect 10 0 2 0;
#X connect 11 0 16 0;
#X connect 12 0 14 0;
#X connect 13 0 15 0;
#X connect 14 0 0 0;
#X connect 15 0 3 0;
#X connect 16 0 1 0;
#X connect 17 0 18 0;
#X connect 18 0 11 0;
#X connect 18 1 12 0;
#X connect 18 2 20 0;
#X connect 18 3 13 0;
#X connect 20 0 21 0;
#X connect 21 0 19 0;
#X restore 298 193 pd UnityInput;
#X msg 402 525 all \$1;
#X text 427 195 id pos len on/off;
#X obj 161 597 clone Pd_GrainSubpatch 2;
#X obj 873 377 bng 15 250 50 0 empty empty empty 17 7 0 10 -262144
-1 -1;
#X obj 167 408 t b f;
#X connect 0 0 3 0;
#X connect 2 0 0 0;
#X connect 3 0 16 0;
#X connect 4 0 2 0;
#X connect 6 0 23 0;
#X connect 7 0 5 0;
#X connect 7 0 5 1;
#X connect 8 0 26 0;
#X connect 13 0 28 0;
#X connect 15 0 22 0;
#X connect 17 0 3 0;
#X connect 18 0 15 0;
#X connect 19 0 12 0;
#X connect 20 0 30 0;
#X connect 22 0 13 0;
#X connect 23 0 28 1;
#X connect 25 0 6 0;
#X connect 25 1 20 0;
#X connect 25 3 19 0;
#X connect 25 4 8 0;
#X connect 28 0 7 0;
#X connect 29 0 3 0;
#X connect 30 0 15 0;
#X connect 30 1 15 1;
