#N canvas -819 -972 1271 805 12;
#X obj 973 429 soundfiler;
#X obj 1068 429 array define grainArray;
#X msg 973 390 read -resize test.wav grainArray;
#X floatatom 973 457 10 0 0 0 - - -;
#X obj 970 359 tgl 15 1 empty empty empty 17 7 0 10 -262144 -1 -1 1
1;
#X obj 160 678 dac~;
#X floatatom 286 480 5 0 0 0 - - -;
#X obj 161 629 *~ 0.5;
#X obj 483 419 tgl 15 0 empty empty empty 17 7 0 10 -262144 -1 -1 0
1;
#X obj 262 70 receive length;
#X obj 406 46 receive id0;
#X obj 300 46 receive id1;
#X msg 423 527 set \$1;
#X msg 152 532 this \$1;
#X obj 82 52 receive start;
#X obj 122 414 *;
#X obj 996 484 s lenInSamples;
#X obj 898 426 loadbang;
#X obj 100 75 r lenInSamples;
#X floatatom 739 175 5 0 0 0 - - -;
#X floatatom 559 183 5 0 0 0 - - -;
#X floatatom 662 171 5 0 0 0 - - -;
#X obj 277 96 s grain_len;
#X floatatom 120 489 10 0 0 0 - - -;
#X msg 219 529 this \$1;
#X obj 786 578 tabread grainArray;
#X text 811 104 instance id pos len;
#X obj 708 427 print;
#N canvas 899 -1052 1123 716 UnityInput 1;
#X obj 253 318 unpack float float float;
#X obj 356 576 outlet;
#X obj 241 571 outlet;
#X obj 300 183 unpackOSC;
#X obj 572 613 outlet;
#X obj 40 231 routeOSC /enable /disable;
#X floatatom 48 262 5 0 0 0 - - -;
#X floatatom 99 265 5 0 0 0 - - -;
#X floatatom 55 312 5 0 0 0 - - -;
#X obj 56 355 outlet;
#X obj 304 219 routeOSC /GrainData;
#X obj 315 134 udpreceive 8000;
#X floatatom 234 388 5 0 0 0 - - -;
#X floatatom 361 381 5 0 0 0 - - -;
#X floatatom 441 380 5 0 0 0 - - -;
#X obj 327 479 change;
#X obj 415 480 change;
#X obj 206 484 change;
#X connect 0 0 12 0;
#X connect 0 1 13 0;
#X connect 0 2 14 0;
#X connect 3 0 5 0;
#X connect 3 0 10 0;
#X connect 5 0 6 0;
#X connect 5 1 7 0;
#X connect 6 0 8 0;
#X connect 7 0 8 0;
#X connect 8 0 9 0;
#X connect 10 0 0 0;
#X connect 11 0 3 0;
#X connect 12 0 17 0;
#X connect 13 0 15 0;
#X connect 14 0 16 0;
#X connect 15 0 1 0;
#X connect 16 0 4 0;
#X connect 17 0 2 0;
#X restore 649 42 pd UnityInput;
#X obj 161 597 clone Pd_GrainSubpatch 2;
#X msg 320 528 all \$1;
#X connect 0 0 3 0;
#X connect 2 0 0 0;
#X connect 3 0 16 0;
#X connect 4 0 2 0;
#X connect 6 0 24 0;
#X connect 7 0 5 0;
#X connect 7 0 5 1;
#X connect 8 0 30 0;
#X connect 12 0 29 3;
#X connect 13 0 29 0;
#X connect 15 0 23 0;
#X connect 17 0 3 0;
#X connect 18 0 15 1;
#X connect 19 0 12 0;
#X connect 20 0 6 0;
#X connect 21 0 15 0;
#X connect 23 0 13 0;
#X connect 24 0 29 1;
#X connect 28 0 8 0;
#X connect 28 1 20 0;
#X connect 28 2 21 0;
#X connect 28 3 19 0;
#X connect 29 0 7 0;
#X connect 30 0 29 2;
